<svg width="48" height="48" viewBox="0 0 48 48" fill="none" xmlns="http://www.w3.org/2000/svg">
<g clip-path="url(#clip0_3185_57)">
<g filter="url(#filter0_d_3185_57)">
<path d="M13.9338 29.5236L13.8362 29.15H13.45H6.5V27.15H12.75H13.3402L13.2432 26.5678C13.1796 26.1863 13.1312 25.7609 13.0988 25.2906C13.0661 24.8164 13.05 24.3864 13.05 24C13.05 23.6136 13.0661 23.1836 13.0988 22.7094C13.1312 22.2391 13.1796 21.8137 13.2432 21.4322L13.3402 20.85H12.75H6.5V18.85H13.45H13.8299L13.9317 18.484C14.9708 14.7499 16.9351 11.8311 19.8218 9.70241C22.7107 7.572 26.1292 6.5 30.1 6.5C32.3446 6.5 34.4436 6.86577 36.4007 7.59364C38.1974 8.26183 39.8388 9.25159 41.3261 10.5668L39.4799 12.413C38.2513 11.3583 36.8646 10.5472 35.3224 9.98067C33.6341 9.36046 31.8924 9.05 30.1 9.05C26.8165 9.05 23.9883 9.84644 21.6413 11.4632C19.2935 13.0806 17.6707 15.3343 16.7729 18.2005L16.5694 18.85H17.25H29.65V20.85H16.35H15.9596L15.8649 21.2287C15.7567 21.6617 15.6862 22.1329 15.6512 22.6406C15.6172 23.1331 15.6 23.5864 15.6 24C15.6 24.4136 15.6172 24.8669 15.6512 25.3594C15.6862 25.8671 15.7567 26.3383 15.8649 26.7713L15.9596 27.15H16.35H29.65V29.15H17.25H16.5818L16.7703 29.7911C17.6358 32.7336 19.3067 35.0108 21.7802 36.596C24.2329 38.1678 27.0111 38.95 30.1 38.95C31.8924 38.95 33.6418 38.6395 35.3459 38.0199C36.902 37.454 38.2838 36.6434 39.4873 35.5878L41.3122 37.3769C39.7061 38.7293 38.0101 39.7372 36.2244 40.4068C34.2823 41.1352 32.2419 41.5 30.1 41.5C26.1327 41.5 22.6897 40.3967 19.7493 38.1995C16.8077 36.0014 14.8721 33.1152 13.9338 29.5236Z" stroke="#FFE600" shape-rendering="crispEdges"/>
</g>
</g>
<defs>
<filter id="filter0_d_3185_57" x="2" y="6" width="44.05" height="44" filterUnits="userSpaceOnUse" color-interpolation-filters="sRGB">
<feFlood flood-opacity="0" result="BackgroundImageFix"/>
<feColorMatrix in="SourceAlpha" type="matrix" values="0 0 0 0 0 0 0 0 0 0 0 0 0 0 0 0 0 0 127 0" result="hardAlpha"/>
<feOffset dy="4"/>
<feGaussianBlur stdDeviation="2"/>
<feComposite in2="hardAlpha" operator="out"/>
<feColorMatrix type="matrix" values="0 0 0 0 0 0 0 0 0 0 0 0 0 0 0 0 0 0 0.25 0"/>
<feBlend mode="normal" in2="BackgroundImageFix" result="effect1_dropShadow_3185_57"/>
<feBlend mode="normal" in="SourceGraphic" in2="effect1_dropShadow_3185_57" result="shape"/>
</filter>
<clipPath id="clip0_3185_57">
<rect width="48" height="48" fill="white"/>
</clipPath>
</defs>
</svg>
